<?xml version="1.0" encoding="iso-8859-1"?>
<!-- Generator: Adobe Illustrator 19.0.0, SVG Export Plug-In . SVG Version: 6.00 Build 0)  -->
<svg xmlns="http://www.w3.org/2000/svg" xmlns:xlink="http://www.w3.org/1999/xlink" version="1.1" id="Layer_1" x="0px" y="0px" viewBox="0 0 254.242 254.242" style="enable-background:new 0 0 254.242 254.242;" xml:space="preserve" width="512px" height="512px">
<g>
	<g>
		<path d="M217.434,96.392l-45.326,1.512L119.314,0H89.892c-6.433,0-11.666,5.235-11.666,11.668v0.939l25.414,87.631l-41.535,1.689    c-2.969,0.013-5.879,0.313-8.696,0.895L35.132,71.787l-19.678-0.004C9.721,71.796,5.047,76.469,5.044,82.205v1.056l13.852,42.366    v2.982L5.049,170.966v1.051c-0.004,2.786,1.081,5.405,3.049,7.378c1.968,1.972,4.587,3.057,7.369,3.057l19.667,0.004    l18.633-31.648c2.711,0.538,5.502,0.813,8.343,0.822l41.726,1.697l-25.61,88.313v0.939c0,6.432,5.233,11.663,11.665,11.663h29.419    l53.156-98.567l44.744,1.495l0.223,0.004c17.514,0,31.765-13.631,31.765-30.391C249.199,110.026,234.947,96.392,217.434,96.392z     M217.535,143.952l-52.819-1.766l-53.299,98.83h-19.24l29.063-100.217l-58.722-2.387l-0.269-0.007    c-3.322,0-6.52-0.516-9.505-1.532l-5.099-1.737l-20.071,34.097l-8.042-0.002l12.587-38.512v-7.195L19.53,85.016l8.042,0.002    l19.77,33.574l5.134-1.808c3.051-1.073,6.342-1.62,9.781-1.622l58.79-2.385l-28.87-99.549h19.242l52.938,98.173l53.178-1.779    c10.175,0.05,18.435,7.733,18.435,17.165S227.71,143.901,217.535,143.952z" fill="#0077b5"/>
	</g>
</g>
<g>
</g>
<g>
</g>
<g>
</g>
<g>
</g>
<g>
</g>
<g>
</g>
<g>
</g>
<g>
</g>
<g>
</g>
<g>
</g>
<g>
</g>
<g>
</g>
<g>
</g>
<g>
</g>
<g>
</g>
</svg>
